<svg id="Layer_1" data-name="Layer 1" xmlns="http://www.w3.org/2000/svg" viewBox="0 0 10.29 7.19"><defs><style>.cls-1{fill:#020202;}</style></defs><path class="cls-1" d="M1.11,4.66c-.06-.09,0-.16.06-.22l1.6-.9v.11l-1.6-.89a.15.15,0,0,1-.06-.23.16.16,0,0,1,.23-.06L3,3.4a.23.23,0,0,1,0,.39l-1.67.94A.15.15,0,0,1,1.11,4.66Z"/><path class="cls-1" d="M5.14,5.48C5,5.48,5,5.42,5,5.3V2.16l.14,0-.63.61a.23.23,0,0,1-.12.06.22.22,0,0,1-.13-.06.17.17,0,0,1,0-.25l.72-.7a.29.29,0,0,1,.22-.09c.11,0,.16.06.16.18V5.3A.16.16,0,0,1,5.14,5.48Z"/><path class="cls-1" d="M8.63,3.52a.89.89,0,0,1,.49.9,1.12,1.12,0,0,1-.26.81,1.11,1.11,0,0,1-.81.25H7.39a1.14,1.14,0,0,1-.81-.25,1.12,1.12,0,0,1-.25-.81.89.89,0,0,1,.5-.91.9.9,0,0,1-.38-.82,1,1,0,0,1,.24-.76,1.08,1.08,0,0,1,.77-.24H8a1,1,0,0,1,.76.24A1,1,0,0,1,9,2.69.9.9,0,0,1,8.63,3.52Zm-.58,1.6A.77.77,0,0,0,8.6,5a.74.74,0,0,0,.16-.55.74.74,0,0,0-.16-.55.77.77,0,0,0-.55-.15H7.39a.79.79,0,0,0-.55.15.79.79,0,0,0-.15.55A.79.79,0,0,0,6.84,5a.79.79,0,0,0,.55.15ZM7.46,2.05A.72.72,0,0,0,7,2.19a.73.73,0,0,0-.14.5A.75.75,0,0,0,7,3.21a.59.59,0,0,0,.46.15h.67a.71.71,0,0,0,.36-.08.4.4,0,0,0,.18-.22,1.31,1.31,0,0,0,0-.37.68.68,0,0,0-.14-.5A.71.71,0,0,0,8,2.05Z"/></svg>