<svg id="Layer_1" data-name="Layer 1" xmlns="http://www.w3.org/2000/svg" viewBox="0 0 12.6 7.99"><defs><style>.cls-1{fill:#ff7900;}</style></defs><path class="cls-1" d="M4.51,5.7,1.22,4.33v-.7L4.51,2.26v.9L2.48,4l2,.82Z"/><path class="cls-1" d="M7.11,1.28V6.81H5.73v-3a5.42,5.42,0,0,0,0-.77.3.3,0,0,0-.17-.2,2,2,0,0,0-.62-.06H4.77V2.16A2.55,2.55,0,0,0,6.3,1.28Z"/><path class="cls-1" d="M10.28,3.67a1,1,0,0,1,.47.37,2.51,2.51,0,0,1,.16,1.16,2.7,2.7,0,0,1-.13,1,1,1,0,0,1-.5.52,2.08,2.08,0,0,1-1,.21,2.07,2.07,0,0,1-1-.2,1.16,1.16,0,0,1-.51-.52,2.68,2.68,0,0,1-.16-1.07,4.45,4.45,0,0,1,.08-.87.88.88,0,0,1,.49-.59.78.78,0,0,1-.39-.39,1.68,1.68,0,0,1-.13-.68,1.35,1.35,0,0,1,.4-1.07,1.7,1.7,0,0,1,1.18-.36,1.72,1.72,0,0,1,1.27.38,1.54,1.54,0,0,1,.34,1.08,1.33,1.33,0,0,1-.11.65A1.21,1.21,0,0,1,10.28,3.67ZM9.53,4.78a1,1,0,0,0-.06-.42.24.24,0,0,0-.21-.1.21.21,0,0,0-.2.1A1,1,0,0,0,9,4.78V5.5A1.1,1.1,0,0,0,9.07,6a.25.25,0,0,0,.21.11A.2.2,0,0,0,9.48,6a1.46,1.46,0,0,0,0-.47Zm0-2.3a.8.8,0,0,0-.05-.37A.18.18,0,0,0,9.27,2c-.1,0-.16,0-.19.1A1,1,0,0,0,9,2.48V2.9a.73.73,0,0,0,.06.35.19.19,0,0,0,.18.09.21.21,0,0,0,.19-.09,1.09,1.09,0,0,0,0-.39Z"/></svg>